<?xml version="1.0" encoding="utf-8"?>
<!-- Generator: Adobe Illustrator 27.4.1, SVG Export Plug-In . SVG Version: 6.00 Build 0)  -->
<svg version="1.1" id="Layer_1" xmlns="http://www.w3.org/2000/svg" xmlns:xlink="http://www.w3.org/1999/xlink" x="0px" y="0px"
	 viewBox="0 0 511.42 593.89" style="enable-background:new 0 0 511.42 593.89;" xml:space="preserve">
<style type="text/css">
	.st0{fill:none;}
	.st1{fill:#364B45;}
	.st2{fill:#C8AA78;}
</style>
<path class="st2" d="M282.88,42.74c-2.58,2.26-6.04,6.16-7.45,10.9c-0.86,2.9-1.12,6.25-1.19,8.41v106.76
	c2.94-2.72,5.7-5.29,8.27-7.66L282.43,108c0-0.07,0.02-0.14,0-0.21v-0.68l-0.02-2.07h-0.02c-0.11-17.05,2.46-61.21,32.1-61.85
	c21.61-0.44,23.57,21.54,17.08,29.55c-5.04,6.22-19.46,6.31-20.79-2.3c0,0-0.43-1.05,0.85-1.71c2.03-1.05,1.57,0.68,2.08,1.25
	c4.26,4.51,13.77,1.34,14.24-5.08c0.48-6.41-3.19-12.67-9.67-13.68c-4.28-0.66-13.95-0.66-17.37,12.35
	c-3.1,11.85,7.59,18.83,11.58,20.56c0,0,16.41,7.55,27.13-6.02c10.72-13.59,6.27-35.77-8.82-42.65c-15.09-6.9-25.26-3.54-28.75-2.78
	c-4.77,1.05-10.63,4.01-16.16,7.34C284.98,40.87,283.98,41.76,282.88,42.74 M225.93,38.31c0.59,0.5,1.19,1.03,1.84,1.58
	c2.44,2.14,6.79,6.63,8.57,12.68c0.98,3.26,1.28,6.93,1.37,9.42v0.07V202.4c9.78-8.94,20.72-18.97,31.32-28.75
	c0.48-0.44,0.94-0.87,1.43-1.32V61.98v-0.05c0.09-2.48,0.39-6.09,1.35-9.35c1.8-6.08,6.15-10.55,8.57-12.68
	c6.5-5.68,8.78-8.04,8.8-11.83c-0.18-0.82-2.23-2.72-4.51-3.15c-0.69-0.12-1.5-0.19-2.37-0.19c-1.73,0-3.51,0.25-5.01,0.48
	c-0.37,0.05-0.73,0.13-1.07,0.18c-1.35,0.21-2.42,0.39-3.31,0.39c-0.2,0-0.37-0.02-0.53-0.02c-2.51-0.21-4.53-1.64-5.63-4.03
	c-0.71-1.53-1-3.24-1.27-4.92c-0.28-1.71-0.57-3.47-1.25-4.54l-0.09-0.13c-2.05-3.19-4.85-6.46-9.91-6.46h-0.32
	c-5.08,0-7.86,3.28-9.92,6.46l-0.07,0.13c-0.69,1.07-0.98,2.83-1.25,4.54c-0.29,1.67-0.55,3.4-1.27,4.92
	c-1.12,2.39-3.13,3.81-5.66,4.03c-0.16,0-0.32,0.02-0.5,0.02c-0.91,0-1.96-0.18-3.31-0.39c-0.34-0.05-0.7-0.12-1.07-0.18
	c-1.51-0.23-3.28-0.48-5.01-0.48c-0.89,0-1.69,0.07-2.39,0.19c-2.26,0.43-4.31,2.33-4.49,3.15
	C218.98,32.11,220.55,33.64,225.93,38.31 M458.55,452.78c-12.22,7.64-30.28,25.57-30.28,25.57l-139.2,6.63l-6.2-0.09l-0.18-160.3
	l10.4-15.05c19.54,42.91,38.85,87.51,38.89,91.37c0,0.05,0,0.09-0.02,0.13c-0.98,5.49-5.01,6.39-7.57,6.39
	c-1.98,0-2.23,1.82-2.23,1.82v10.96c0,0-0.41,2.9,2.87,2.9h12.9c-1.35,1.34-2.42,2.98-2.85,4.97c-0.16,0.8-0.27,1.75-0.27,2.8
	c0.02,5.45,2.71,13.26,11.58,13.26c0.52,0,1.07-0.02,1.64-0.09c8.5-0.86,10.87-5.1,10.87-8.62c0-0.41-0.04-0.82-0.11-1.21
	c-0.16-0.98-0.46-1.84-0.87-2.49c-0.3-0.52-0.73-0.96-1.25-1.34c-2.62-1.96-7.23-2.3-7.23-2.3s2.53-1.94,6.75-1.94
	c3.08,0,7.06,1.03,11.63,4.6c5.52,4.33,34.74,23.94,60.94,23.94c1.59,0,3.17-0.07,4.74-0.23c27.1-2.64,41.92-25.03,41.92-42.4v-0.41
	c-0.23-17.21-15.07-30.48-32.73-30.48c-15.48,0-22.47,6.39-25.6,12.68c-0.77,1.51-1.3,3.03-1.67,4.44c-0.23,0.87-0.37,1.69-0.5,2.48
	c-5.65-9.41-15.11-25.71-16.1-42.01c-0.16-2.58-0.23-5.01-0.23-7.43c1.75-9.89,6.7-26.08,8.78-29.2c1.34-2,2.69-4.86,2.69-7.66
	c-0.02-2.58-1.18-5.1-4.58-6.84c-0.02-0.02-0.04-0.02-0.07-0.04c0.44-0.8,0.91-1.53,1.39-2.1c1.1-1.26,2.62-2.78,3.65-2.78
	c0.73,0,1.87,0.62,3.06,1.3c1.89,1.09,3.24,1.53,4.54,1.53c2.19,0,3.47-1.35,4.42-2.33l0.36-0.37c2.14-2.21,3.28-4.88,3.28-7.75
	c0-5.84-4.76-11.63-11.88-14.47c-2.14-2.49-4.81-4.65-7.8-5.9c0,0-1.67-0.57-4.35-0.57c-1.91,0-4.29,0.28-6.95,1.3
	c-3.51,1.33-6.07,4.01-7.86,6.66c-0.07,0.09-0.12,0.19-0.2,0.29c-2.3,3.49-3.26,6.84-3.26,6.84l-4.47-4.11c0,0-3.06,4.11-5.88,10.4
	c-0.94,2.08-1.26,4.79-1.26,7.46c0,5.4,1.26,10.67,1.26,10.67s-3.28-1.07-7.34-1.92c-0.25-0.05-0.52-0.11-0.78-0.16
	c-2.41-0.46-5.01-0.82-7.34-0.82c-2.9,0-5.36,0.55-6.43,2.19c-2.48,3.72-3.65,7.86-3.65,11.56c0,0.98,0.09,1.92,0.25,2.83
	l-5.95-12.61c0.44-1.17,0.94-2.33,1.53-3.45c-0.7-35.74-1.32-86.4-1.32-86.4l-25.31,36.61l-2.9-6.18l23.44-33.92l10.39-15.04
	l0.23,18.46c0.02,0.64,0.57,45.39,1.21,80.2c2.28-1.19,5.11-1.82,8.51-1.82c2.16,0,4.44,0.23,6.63,0.58
	c-0.05-3.83,0.39-7.94,1.92-11.36c3.12-6.95,6.57-11.61,6.72-11.81l5.02-6.73l0.59,0.54c-0.2-12.51,0.34-30.68,4.29-63.76
	c4.49-37.75,11.65-64.49,21.29-79.45c1.78-2.76,3.65-5.15,5.61-7.11c-20.2,10.03-39.1,38.94-58.91,69.21
	c-6.88,10.53-14,21.42-21.4,31.84c-5.93,8.37-11.92,16.98-17.78,25.47l-2.9-6.18c5.25-7.62,10.63-15.32,15.96-22.84
	c34.31-48.4,62.46-106.3,98.91-107.24h0.98c15.61,0,22,9.78,21.98,19.81c-0.02,10.51-7.09,21.27-17.98,21.27
	c0,0-16-0.04-16.98-13.36c-0.04-0.54-0.07-1.05-0.07-1.57c0.04-11.26,9.73-13.82,13.56-13.82c3.88,0,8.51,2.9,8.51,8.21
	c0,0.16,0,0.34-0.02,0.52c-0.21,3.67-2.12,4.47-4.01,4.47c-0.75,0-1.46-0.12-2.1-0.25c-0.62-0.11-1.14-0.23-1.44-0.23h-0.04
	c-0.87,0.02-1.19,0.68-1.19,1.68c0,0.59,0.11,1.28,0.29,2.03c0.16,0.62,1.41,1.1,3.08,1.1c3.81,0,9.76-2.44,9.74-10.96
	c0-7.94-9.12-10.17-12.9-10.17h-0.43c-2.99,0.16-25.31-1.09-35.97,88.31c-3.47,29.11-4.28,46.53-4.28,58.7c0,1.16,0,2.24,0.02,3.3
	c2.05-2,4.54-3.76,7.55-4.94c0.07-11.86,0.93-28.7,4.21-56.17c3.35-28.04,7.78-46.41,12.1-58.43c2.28,2.96,5.45,5.31,9.41,6.91
	c5.33,2.16,10.39,2.23,10.94,2.23h0.02c7.45,0,14.2-3.42,19.05-9.62c4.12-5.29,6.48-12.31,6.48-19.24c0-7.31-2.57-14.02-7.25-18.88
	c-3.71-3.87-10.58-8.46-22.28-8.46c-0.37,0-0.77,0-1.16,0.02h-0.02c-8.16,0.21-16.37,2.83-24.42,7.77
	c-6.88,4.24-13.75,10.19-21.02,18.21c-13.04,14.39-25.33,33.17-38.34,53.05c-6.81,10.42-13.86,21.18-21.11,31.41
	c-4.49,6.34-9.03,12.83-13.5,19.29l-18.47-39.17c0,0,65.88-65.35,72.08-68.25c4.6-2.16,21.36-7.38,24.44-9.75
	c0.21-0.18,0.41-0.39,0.57-0.62l0.02-0.02c0.59-0.89,0.77-2.16,0.77-3.33c0-1.69-0.37-3.22-0.37-3.22s-24.39,0.02-41.37,0.02
	c-8.5,0-15.14,0-15.96-0.02h-0.02c-2.74,0-3.42,2.17-3.42,3.81c0,0.57,0.07,1.05,0.18,1.39c0.23,0.8,1.28,3.4,1.28,6.84
	c0,2.49-0.57,5.45-2.42,8.48c-3.85,6.27-86.67,81.61-107.8,100.78V140.2c0-4.83,0.82-7.71,6.16-7.71h4.54l-0.09,81.04
	c2.64-2.4,5.47-4.97,8.43-7.67V62.13c-0.07-2.14-0.32-5.52-1.19-8.48c-1.41-4.74-4.88-8.64-7.45-10.9
	c-0.02-0.02-0.02-0.02-0.04-0.04c-7.22-4.56-15.09-9.1-19.27-10.03c-3.49-0.76-13.67-4.11-28.75,2.78
	c-15.09,6.87-19.54,29.06-8.82,42.65c10.72,13.58,27.13,6.02,27.13,6.02c3.99-1.73,14.68-8.71,11.58-20.56
	c-3.42-13.01-13.09-13.01-17.37-12.35c-6.47,1.01-10.16,7.27-9.67,13.68c0.46,6.42,9.98,9.59,14.24,5.08
	c0.52-0.57,0.07-2.3,2.08-1.25c1.28,0.66,0.86,1.71,0.86,1.71c-1.34,8.61-15.75,8.52-20.79,2.3c-6.48-8.01-4.52-30,17.08-29.55
	c31.23,0.66,32.4,49.69,32.07,64.37c-0.02,0.14,0.02,0.29,0.02,0.43v4.66h-76.87v19.85h2.74c12.6,0,15.41,1.8,15.62,57.54
	c-0.71-1.17-1.43-2.35-2.14-3.53c-12.03-19.88-23.37-38.68-35.52-53.21c-6.8-8.14-13.22-14.18-19.65-18.51
	c-7.64-5.11-15.45-7.82-23.2-8.02h-0.02c-0.37-0.02-0.77-0.02-1.16-0.02c-15.87,0-23.05,8.32-25.9,13.29
	c-5.08,8.77-4.83,20.52,0.61,29.93c2.17,3.78,5.11,6.93,8.48,9.16c3.83,2.51,8.25,3.83,12.81,3.83h0.04c0.55,0,5.58-0.07,10.88-2.24
	c3.94-1.6,7.11-3.96,9.39-6.9c4.31,12.01,8.78,30.39,12.17,58.45c3.44,28.59,4.68,45.32,5.02,56.31c3.08,1.27,5.61,3.15,7.66,5.25
	c-0.09-11.03-1.09-28.57-5.19-62.48c-10.78-89.38-32.97-88.15-35.97-88.31h-0.41c-3.61,0-12.93,2.23-12.93,10.17
	c0,8.53,5.74,10.87,9.55,10.87c1.67,0,2.99-0.45,3.3-1.02c0.39-0.73,0.55-1.44,0.55-2.05c0-1-0.48-1.69-1.21-1.69
	c-0.09,0-0.18,0.02-0.25,0.04c-0.59,0.11-2.01,0.61-3.46,0.61c-1.94,0-3.92-0.86-4.13-4.6c-0.02-0.18-0.02-0.36-0.02-0.52
	c-0.02-5.31,4.63-8.21,8.52-8.21c3.78,0,13.54,2.1,13.56,13.48c0,0.62-0.02,1.25-0.07,1.91c-1.14,13.31-17,13.36-17,13.36
	c-10.88,0-17.96-10.76-17.97-21.27c-0.02-10.03,6.38-19.81,21.98-19.81h1c29.73,0.77,54.1,46.99,80.7,90.29v11.17
	c-4.61-7.34-9.16-14.82-13.59-22.2c-11.74-19.42-22.84-37.77-34.33-51.52c-5.97-7.14-11.47-12.36-16.84-15.94
	c-0.18-0.15-0.37-0.27-0.57-0.39c1.41,1.6,2.76,3.44,4.08,5.47c9.6,14.97,16.76,41.69,21.32,79.42c4.15,34.35,5.17,52.11,5.24,63.33
	l0.09-0.09l5.02,6.73c0.14,0.2,3.58,4.86,6.72,11.83c1.53,3.4,1.98,7.52,1.92,11.34c2.19-0.35,4.47-0.58,6.63-0.58
	c2.78,0,5.17,0.41,7.21,1.21c-0.36-20.4-1.94-42.79-1.96-43.27l-3.31-30.66l12.36,18.21v9.67l-2.17-2.46c0,0,0.82,28.24,1.09,53.62
	c0.39,0.61,0.73,1.21,1.09,1.82v17.28c-0.64-0.11-1.28-0.18-1.94-0.18c-0.23,0-0.46,0.05-0.69,0.07c0.07-0.48,0.11-0.96,0.11-1.48
	c0-4.22-2.24-9.42-5.33-14.07c-1.09-1.64-3.54-2.19-6.45-2.19c-2.34,0-4.94,0.36-7.34,0.82c-0.27,0.05-0.53,0.11-0.78,0.16
	c-4.06,0.85-7.34,1.92-7.34,1.92s1.26-5.27,1.26-10.67c0-2.67-0.32-5.38-1.26-7.46c-2.81-6.29-5.88-10.4-5.88-10.4l-4.47,4.11
	c0,0-0.96-3.35-3.26-6.84c-0.05-0.09-0.12-0.2-0.18-0.29c-1.8-2.65-4.36-5.33-7.86-6.66c-2.65-1.02-5.06-1.3-6.96-1.3
	c-2.67,0-4.35,0.57-4.35,0.57c-2.44,1.02-4.67,2.64-6.56,4.54c-0.64,0.14-1.03,0.25-1.12,0.29l-0.11,0.04l-0.13,0.04
	c-6.48,2.51-11.24,7.41-12.44,12.81c-0.89,4.06,0.27,7.98,3.26,11.04c0.11,0.12,0.23,0.25,0.34,0.36c1,1.07,2.51,2.66,5.11,2.66
	c1.48,0,2.98-0.5,5.01-1.66c0.73-0.41,2.07-1.18,2.6-1.18c0.04,0,0.84,0.02,2.94,2.44c0.45,0.53,0.87,1.21,1.28,1.96
	c-2.8,1.73-3.81,4.04-3.81,6.41c-0.02,2.8,1.34,5.66,2.67,7.66c1.76,2.64,5.56,14.57,7.77,24.17c0.14,3.62,0.12,7.64-0.16,12.4
	c-0.94,15.55-9.78,31.21-15.43,40.67c-0.07-0.37-0.14-0.71-0.23-1.09c-0.37-1.41-0.91-2.92-1.67-4.44
	c-3.14-6.29-10.12-12.68-25.58-12.68c-17.67,0-32.49,13.27-32.74,30.48v0.41c0,17.37,14.82,39.76,41.92,42.4
	c1.57,0.16,3.14,0.23,4.74,0.23c26.21,0,55.42-19.62,60.96-23.94c4.56-3.56,8.53-4.6,11.62-4.6c4.22,0,6.75,1.94,6.75,1.94
	s-4.61,0.34-7.23,2.3c-0.5,0.37-0.94,0.82-1.25,1.34c-0.39,0.66-0.71,1.51-0.87,2.49c-0.05,0.39-0.09,0.8-0.09,1.21
	c-0.02,3.53,2.35,7.77,10.85,8.62c0.57,0.07,1.12,0.09,1.64,0.09c8.87,0,11.56-7.8,11.56-13.26c0.02-1.05-0.09-1.99-0.25-2.8
	c-0.41-1.91-1.41-3.49-2.65-4.79h52.16l-0.07,61.69h-3.38l-139.17-6.63c0,0-18.06-17.92-30.29-25.57
	c-15.16-9.46-45.46-15.14-45.46-8.52c0,6.63,18.47,20.33,27.93,35.99c13.74,22.71,13.74,45.45,18.47,48.3
	c4.72,2.84,62.49-0.48,81.43,0.46c18.94,0.94,76.91,1.58,93.94,10.58c8.32,4.38,15.32,15.44,20.08,24.92
	c-9.1-11.88-18.63-16.55-27.35-19.19c-16.85-5.08-55.64-9.65-79.79,4.87c-24.16,14.52-49.29,13.97-54.35,12.08
	c-5.06-1.87-5.59-5.75-3.26-8.37c2.35-2.6,5.03-0.48,5.03-0.48c-6.22,0.07-4.38,10.53,4.18,7.06c8.8-3.55,0.77-17.1-9.78-12.6
	c-8.32,3.54-8.6,14.55,2.49,20.03c10.08,4.97,18.76,4.95,26.88,4.2c8.12-0.75-4.52,1.57-0.2,2.81c4.33,1.23,14.62,1.34,20.52-2.83
	c5.91-4.17,13.75-7.5,13.75-7.5c-7.55,5.68-19.61,14.04-9.8,14.55c9.82,0.53,14.82-0.82,35.13-16.59
	c20.29-15.76,43.36-10.44,43.36-10.44c-12.95-1.57-38.21,3.9-44.16,19.94c-5.93,16.03,14.73,20.97,24.69,16.53
	c3.78-1.68,5.35-3.62,5.84-5.4c0.32-0.66,0.52-1.37,0.5-2.12c-0.05-2.8-2.6-5.04-5.72-5.01c-3.1,0.04-5.58,2.33-5.52,5.13
	c0.04,2.44,2,4.47,4.54,4.92c-8.94,3.49-14.57-3.46-14.66-9c-0.11-5.61,14.07-15.69,38-15.53c15.43,0.09,30.78,7.25,34.9,15.3
	c0.21,0.39,0.39,0.64,0.55,0.78c0.03,0.09,0.07,0.2,0.11,0.29c0.27,0.73,1.37,0.82,1.67,0c0.04-0.05,0.05-0.12,0.09-0.2
	c0.16-0.16,0.34-0.44,0.55-0.85c3.81-8.16,19.21-15.18,34.63-15.23c23.92-0.09,38.14,10.03,38.05,15.64
	c-0.07,5.54-5.68,12.47-14.64,8.94c2.57-0.43,4.51-2.44,4.54-4.88c0.04-2.81-2.44-5.11-5.56-5.15c-3.1-0.05-5.65,2.17-5.68,4.99
	c-0.02,0.75,0.18,1.46,0.5,2.1c0.5,1.78,2.08,3.74,5.84,5.42c9.99,4.47,30.64-0.41,24.66-16.46c-5.99-16.03-31.28-21.57-44.22-20.04
	c0,0,23.05-5.27,43.4,10.55c20.34,15.82,25.35,17.19,35.17,16.69c9.82-0.52-2.26-8.87-9.83-14.61c0,0,7.84,3.37,13.77,7.54
	c5.91,4.18,16.21,4.11,20.54,2.89c4.31-1.23-8.34-3.57-0.2-2.8c8.12,0.77,16.78,0.8,26.85-4.13c11.1-5.45,10.78-16.46,2.46-20.02
	c-10.56-4.54-18.56,8.99-9.76,12.58c8.59,3.49,10.39-6.96,4.17-7.05c0,0,2.67-2.12,5.02,0.5c2.35,2.62,1.82,6.5-3.24,8.37
	c-5.04,1.87-30.18,2.37-54.37-12.22c-24.19-14.59-62.97-10.12-79.81-5.08c-8.53,2.57-17.85,7.07-26.76,18.42
	c3.79-7.64,8.94-16.28,14.96-21.88c14.2-13.27,79.81-12.01,98.75-12.95c18.94-0.94,76.71,2.37,81.43-0.46
	c4.74-2.85,4.74-25.58,18.48-48.3c9.46-15.66,27.93-29.36,27.93-35.99C504.02,437.64,473.71,443.32,458.55,452.78 M138.2,422.23
	c-9.37,7.91-29.82,22.12-55.72,22.12c-17.62,0-28.97-8.96-33.76-19.43c-1.75-3.81-2.62-7.82-2.62-11.67
	c-0.02-11.17,7.34-21.08,22.34-21.08c10.53,0,16.78,9.41,15.71,17.39c-0.54,3.99-1.75,6.63-3.14,8.37c-0.7,0.88-1.44,1.5-2.17,1.98
	c-1.14,1.34-2.76,2.17-4.56,2.17c-3.46,0-6.27-3.08-6.27-6.88c0-3.81,2.81-6.89,6.27-6.89c1.6,0,3.06,0.68,4.17,1.76
	c-0.21-2.3-1.16-4.74-3.44-7.09c-0.48-0.52-1.01-1-1.62-1.5c-0.79-0.64-1.98-1.23-3.4-1.6c-0.94-0.25-1.98-0.41-3.08-0.41
	c-1.92,0-4.01,0.46-6.02,1.67c-2.23,1.34-4.35,3.6-6.02,7.16c-0.68,1.46-1.05,3.3-1.05,5.31c0,9.98,8.94,24.6,31.41,24.6
	c36.09,0,58.54-21.15,58.54-21.15S141.8,419.2,138.2,422.23 M153.35,333.99c-0.87,2.03-2.49,3.1-3.05,3.21
	c-0.3,0-0.55-0.02-0.82-0.02c-6.73,0-12.13,3.35-16.53,10.25c-3.56,5.56-6.16,12.93-8.93,20.75c-3.05,8.64-6.2,17.57-10.96,25.21
	c-2.8,4.51-5.93,8.14-9.44,10.95c2.37-4.06,5.13-9.08,7.62-14.62c4.33-9.69,6.79-18.71,7.29-26.79c0.82-13.33-0.43-21.59-1.62-29.61
	c-0.34-2.31-0.68-4.49-0.96-6.82v-0.11c-0.8-6.64-2.41-16.1-6.98-21.39c-2.03-2.37-4.83-5.06-8.6-5.06c-2.33,0-4.24,0.98-6.31,2.16
	c-0.37,0.22-0.66,0.36-0.87,0.46c-0.04-0.04-0.07-0.05-0.09-0.09c-0.14-0.14-0.27-0.29-0.41-0.43c-1.23-1.26-1.66-2.65-1.32-4.24
	c0.64-2.87,3.64-5.75,7.66-7.34c0.34-0.09,1.57-0.37,3.33-0.37c2.01,0,4.03,0.36,6,1.05c6.65,2.34,9.41,10.8,9.42,10.87l1.69,5.33
	l4.26-3.62l1.55-1.32c1.01,1.58,2.26,3.69,3.47,6.16c1.69,3.49,0.75,11.01-0.25,14.91l-1.64,6.38l6.31-1.91
	c0.09-0.02,8.76-2.64,14.96-2.64c2.71,0,3.58,0.52,3.72,0.61C153.88,328.74,154.4,331.54,153.35,333.99 M282.67,311.31
	L282.67,311.31l-8.43,12.2l-3.79,5.49l-14.22,20.56l-0.07,0.11l-3.38,4.9l-3.95-4.44l-0.09-0.11l-14.82-16.64l-2.64-2.96
	l-16.41-18.46v-8.91l37.34,41.95l34.36-49.74c0.96,2.06,1.91,4.15,2.87,6.24L282.67,311.31z M262.43,261.67
	c-5.9-12.24-9.48-19.21-11.61-23.18c-2.46,2.03-6.22,5.33-11.87,10.66c-0.41,0.39-0.84,0.78-1.25,1.17v40.08
	c-1.23-1.58-2.49-3.22-3.79-4.92v-31.55c-3.06,2.96-5.97,5.83-8.48,8.3l-0.02,12.11c-3.17-4.17-6.43-8.52-9.8-13.02
	c8.85-8.89,33.46-33.23,37.39-33.23h0.09c1.57,0.18,12.02,21.24,24.85,48.6c-2.62,3.92-5.13,7.66-7.5,11.22v-9.39
	C267.58,272.46,264.89,266.78,262.43,261.67 M225.39,286.82L225.39,286.82c0.3,0.39,0.57,0.73,0.86,1.1
	c0.98,1.28,1.94,2.53,2.89,3.76c0.43,0.57,0.86,1.12,1.28,1.66c1.03,1.36,2.05,2.65,3.05,3.94c0.14,0.2,0.3,0.41,0.44,0.61
	c1.32,1.68,2.58,3.3,3.79,4.86c9.01,11.56,15.32,19.4,17,21.48c0.02,0,0.02,0.02,0.04,0.02c0.07,0.11,0.14,0.18,0.19,0.25
	c0.06,0.07,0.09,0.12,0.13,0.16c0.02,0.04,0.04,0.05,0.06,0.07c0.03,0.05,0.07,0.07,0.07,0.07s0.16-0.25,0.45-0.7
	c0.03-0.03,0.05-0.07,0.09-0.12c0.3-0.48,0.77-1.18,1.35-2.07c0.04-0.07,0.09-0.14,0.13-0.22c3.1-4.74,9.53-14.55,17.96-27.2
	c0.54-0.8,1.07-1.6,1.6-2.42c1.58-2.37,3.22-4.83,4.93-7.38c0.96,2.07,1.92,4.17,2.9,6.29c-14.36,21.45-24.35,36.86-24.55,37.16
	l-4.35,6.7l-5.02-6.2c-0.23-0.29-15.66-19.33-35.81-45.91v-9.8C218.51,277.81,222.04,282.44,225.39,286.82 M425.59,438.23
	c22.47,0,31.41-14.62,31.41-24.6c0-2.01-0.36-3.85-1.05-5.31c-1.67-3.56-3.79-5.83-6.02-7.16c-2.01-1.21-4.1-1.67-6.02-1.67
	c-1.1,0-2.14,0.16-3.08,0.41c-1.42,0.37-2.62,0.96-3.4,1.6c-0.61,0.5-1.14,0.98-1.62,1.5c-2.41,2.49-3.33,5.08-3.46,7.48
	c1.14-1.32,2.74-2.15,4.54-2.15c3.46,0,6.27,3.08,6.27,6.89c0,3.79-2.81,6.88-6.27,6.88c-1.55,0-2.96-0.64-4.06-1.66
	c-0.98-0.52-2.05-1.28-3.03-2.5c-1.39-1.74-2.6-4.38-3.12-8.37c-1.09-7.98,5.17-17.39,15.69-17.39c15,0,22.36,9.9,22.34,21.08
	c0,3.81-0.86,7.79-2.57,11.54c-4.76,10.54-16.12,19.56-33.79,19.56c-25.01,0-44.89-13.22-54.67-21.25h1.34
	C384.55,429.36,402.2,438.23,425.59,438.23 M358.95,324.02c0.13-0.09,1.02-0.61,3.72-0.61c6.2,0,14.88,2.62,14.97,2.64l6.31,1.91
	l-1.62-6.38c-1.01-3.9-1.96-11.42-0.27-14.91c1.21-2.48,2.46-4.58,3.47-6.17l1.55,1.32l4.26,3.62l1.69-5.33
	c0.02-0.07,2.78-8.53,9.42-10.87c1.98-0.7,3.99-1.03,6-1.03c1.76,0,2.99,0.27,3.33,0.36c4.03,1.58,7.02,4.47,7.66,7.36
	c0.34,1.57-0.09,2.96-1.3,4.22c-0.16,0.15-0.3,0.29-0.43,0.43c-0.02,0.04-0.05,0.05-0.09,0.09c-0.21-0.11-0.5-0.25-0.87-0.46
	c-2.07-1.18-3.97-2.16-6.31-2.16c-3.78,0-6.58,2.69-8.61,5.06c-4.58,5.31-6.16,14.75-6.98,21.41v0.09c-0.29,2.33-0.6,4.51-0.96,6.82
	c-1.19,8.02-2.42,16.3-1.62,29.61c0.5,8.09,2.94,17.1,7.29,26.78c2.5,5.56,5.26,10.58,7.63,14.64c-3.51-2.82-6.65-6.45-9.44-10.96
	c-4.74-7.62-7.91-16.57-10.96-25.21c-2.76-7.8-5.36-15.18-8.93-20.75c-4.4-6.89-9.8-10.23-16.53-10.24c-0.25,0-0.52,0.02-0.8,0.02
	c-0.57-0.11-2.19-1.17-3.06-3.21C356.42,329.65,356.94,326.85,358.95,324.02 M335.18,248.64c0.21,15.05,0.5,34.97,0.84,52.91
	l-15.18-32.17L335.18,248.64z M224.32,415.76h-66.41v-3.38h3.05c0.8,0,1.57,0.04,2.32,0.05c3.58,0.12,6.66,0.21,8.73-2.89
	c2.07-3.14,2.33-6.79,2.33-9.94V198.17c0-35.17-0.78-49.99-3.14-58.77c-1.03-3.81-2.99-9.25-8.26-12.22
	c-1.96-1.1-4.22-1.75-6.98-2.01v-5h66.9v4.81h-1.82c-5.01,0-8.71,1.78-11.05,5.31c-2.07,3.16-2.33,6.79-2.33,9.92v109.74l1.57-1.43
	l10.39-9.42c12.88-11.69,37.86-34.4,60.43-55.26c45.7-42.22,47.58-45.28,48.71-47.12c3.19-5.2,4.22-10.94,3.12-17.07h3.12l8.05,0.02
	l13.95-0.02H365c-7.04,1.96-8.75,2.44-9.01,2.56c-0.09,0.05-0.18,0.09-0.28,0.13c-1.55,0.59-3.03,1.14-37.77,34.54
	c-18.28,17.55-35.86,34.85-36,34.97l-3.39,3.33l-0.48,0.48l0.28,0.61l2.05,4.37l75.87,160.95c0.7,1.68,4.52,10.76,10.12,20.42
	c8.89,15.41,17.3,23.85,25.71,25.85c6.64,1.57,8.55,4.08,8.71,4.92c0.05,0.36,0.09,1.41,0.09,2.82h-71.53v-1.44c-0.23,0.07,0,0,0,0
	c5.11-1.67,8.64-5.88,9.69-11.72c0.41-2.37,0.05-4.4-3.06-12.47c-1.78-4.61-4.4-10.99-7.8-18.99
	c-6.31-14.89-15.02-34.67-24.51-55.67c-16.57-36.66-37.98-82.39-43.77-90.57c-0.78-1.12-2.6-3.69-6.02-4.08l-0.14-0.02
	c-0.05,0-0.2-0.02-0.2-0.02c-0.18,0-0.34-0.02-0.55-0.02c-2.92,0-5.7,1.46-10.97,5.75c-2.97,2.42-6.8,5.81-11.38,10.08
	c-8.03,7.5-16.48,15.91-20.81,20.25l-1.92,1.94l-0.27,0.27v82.77c0,35.15,0.79,49.97,3.14,58.77c1.03,3.83,3.01,9.25,8.27,12.22
	c1.55,0.87,3.29,1.46,5.27,1.8V415.76z M214.86,341.66v-18.29l10.47,11.77l-0.07,72.1C215.49,406.36,214.86,399.16,214.86,341.66
	 M488.6,452.89c-0.78,0.85-1.71,1.89-2.76,3.06c-7.39,8.26-20.34,23.73-25.28,35.74c-6.09,14.81-9.32,28.33-9.32,28.33
	s-6.93-0.07-18.03-0.07c-40.42,0-136.03,1.07-153.35,10.98c-13.51,7.69-19.74,21.23-22.45,29.68c-0.46,1.44-0.82,2.72-1.1,3.81
	c-0.57,2.31-0.78,3.71-0.78,3.71s-0.25-1.39-0.91-3.67c-0.3-1.09-0.7-2.37-1.19-3.8c-2.96-8.55-9.49-22.32-22.48-29.73
	c-17.33-9.91-112.93-10.98-153.35-10.98c-11.1,0-18.05,0.07-18.05,0.07s-3.21-13.52-9.3-28.33c-4.93-12.01-17.89-27.47-25.28-35.74
	c-1.05-1.17-1.98-2.21-2.76-3.06c-1.62-1.75-2.6-2.76-2.6-2.76s21.86,6.86,30.96,13.56c10.69,7.86,27.45,26.51,27.45,26.51
	l148.01,3.79l7.87-0.07V344.75l3.79,4.26v148.67l-3.76,0.02l-7.87,0.07H226h-0.05l-148-3.79l-1.64-0.04l-1.09-1.21
	c-0.16-0.18-16.64-18.46-26.88-25.99c-3.78-2.76-10.03-5.63-15.84-7.97c7.48,8.82,17.05,21.22,21.27,31.48
	c4.51,10.97,7.45,21.13,8.73,25.96c3.06-0.02,8.34-0.05,15.11-0.05c22.27,0,55.15,0.3,85.53,1.78c38.76,1.87,61.57,5.04,69.71,9.69
	c8.75,5.01,16.1,13.49,21.23,24.51c0.48,1.01,0.91,1.99,1.3,2.94c0.34-0.87,0.71-1.76,1.12-2.69c4.92-10.98,12.34-19.55,21.48-24.77
	c8.14-4.65,30.94-7.82,69.71-9.69c30.37-1.48,63.26-1.78,85.53-1.78c6.77,0,12.04,0.04,15.11,0.05c1.28-4.83,4.22-14.98,8.73-25.96
	c4.22-10.26,13.79-22.66,21.29-31.48c-5.83,2.34-12.08,5.18-15.86,7.97c-10.24,7.53-26.72,25.81-26.88,25.99l-1.1,1.21l-1.62,0.05
	l-157.79,3.35h-0.04l-0.8,0.02l-3.81,0.04V342.3l3.79-5.47v156.73h0.78l157.77-3.37c0,0,16.76-18.65,27.45-26.51
	c9.1-6.7,30.96-13.56,30.96-13.56S490.23,451.14,488.6,452.89 M371.69,126.72v-0.05V126.72 M321.47,126.72c0-0.02,0-0.04-0.02-0.05
	L321.47,126.72"/>
</svg>
